# AST/ASF file generated using VICON BodyLanguage
# -----------------------------------------------
:version 1.10
:name VICON
:units
  mass 1.0
  length 0.45
  angle deg
:documentation
   .ast/.asf automatically generated from VICON data using
   VICON BodyBuilder and BodyLanguage model FoxedUp or BRILLIANT.MOD
:root
   order TX TY TZ RX RY RZ
   axis XYZ
   position 0 0 0  
   orientation 0 0 0 
:bonedata
  begin
     id 1 
     name lhipjoint
     direction 0.602128 -0.715006 0.355257 
     length 2.21237 
     axis 0 0 0  XYZ
  end
  begin
     id 2 
     name lfemur
     direction 0.34202 -0.939693 0  
     length 6.71649  
     axis 0 0 20  XYZ
    dof rx ry rz
    limits (-160.0 20.0)
           (-70.0 70.0)
           (-60.0 70.0)
  end
  begin
     id 3 
     name ltibia
     direction 0.34202 -0.939693 0   
     length 6.97123   
     axis 0 0 20   XYZ
    dof rx
    limits (-10.0 170.0)
  end
  begin
     id 4 
     name lfoot
     direction 0.0655697 -0.180151 0.981451   
     length 1.80924   
     axis -90 7.62852e-016 20   XYZ
    dof rx rz
    limits (-45.0 90.0)
           (-70.0 20.0)
  end
  begin
     id 5 
     name ltoes
     direction 1.53545e-011 -4.21827e-011 1   
     length 0.916331   
     axis -90 7.62852e-016 20   XYZ
    dof rx
    limits (-90.0 20.0)
  end
  begin
     id 6 
     name rhipjoint
     direction -0.625414 -0.698792 0.347201   
     length 2.2637  
     axis 0 0 0  XYZ 
  end
  begin
     id 7 
     name rfemur
     direction -0.34202 -0.939693 0   
     length 7.07595   
     axis 0 0 -20   XYZ
    dof rx ry rz
    limits (-160.0 20.0)
           (-70.0 70.0)
           (-70.0 60.0)
  end
  begin
     id 8 
     name rtibia
     direction -0.34202 -0.939693 0   
     length 7.22924   
     axis 0 0 -20   XYZ
    dof rx
    limits (-10.0 170.0)
 end
 begin
     id 9 
     name rfoot
     direction -0.0766747 -0.210662 0.974547   
     length 1.98482  
     axis -90 -7.62852e-016 -20   XYZ
    dof rx rz
    limits (-45.0 90.0)
           (-20.0 70.0)
  end
  begin
     id 10 
     name rtoes
     direction -1.53532e-011 -4.21867e-011 1   
     length 0.999842   
     axis -90 -7.62852e-016 -20   XYZ
    dof rx
    limits (-90.0 20.0)
  end
  begin
     id 11 
     name lowerback
     direction -0.0224668 0.997354 -0.0691422   
     length 2.09945   
     axis 0 0 0   XYZ
    dof rx ry rz
    limits (-20.0 45.0)
           (-30.0 30.0)
           (-30.0 30.0)
  end
  begin
     id 12 
     name upperback
     direction 0.0134698 0.998451 -0.0539888   
     length 2.09758   
     axis 0 0 0   XYZ
    dof rx ry rz
    limits (-20.0 45.0)
           (-30.0 30.0)
           (-30.0 30.0)
  end
  begin
     id 13 
     name thorax
     direction 0.0241905 0.99948 -0.0213333   
     length 2.10428   
     axis 0 0 0   XYZ
    dof rx ry rz
    limits (-20.0 45.0)
           (-30.0 30.0)
           (-30.0 30.0)
  end
  begin
     id 14 
     name lowerneck
     direction -0.00866847 0.995978 0.0891737   
     length 1.3959   
     axis 0 0 0   XYZ
    dof rx ry rz
    limits (-20.0 45.0)
           (-30.0 30.0)
           (-30.0 30.0)
  end
  begin
     id 15 
     name upperneck
     direction 0.0680679 0.992203 0.104404   
     length 1.39452   
     axis 0 0 0   XYZ
    dof rx ry rz
    limits (-20.0 45.0)
           (-30.0 30.0)
           (-30.0 30.0)
  end
  begin
     id 16
     name head
     direction 0.0242216 0.999358 0.0264054  
     length 1.40433  
     axis 0 0 0   XYZ
    dof rx ry rz
    limits (-20.0 45.0)
           (-30.0 30.0)
           (-30.0 30.0)
  end
  begin
     id 17 
     name lclavicle
     direction 0.929368 0.362991 -0.0671771  
     length 3.04887  
     axis 0 0 0   XYZ
    dof ry rz
    limits (-20.0 10.0)
           (0.0 20.0)
  end
  begin
     id 18 
     name lhumerus
     direction 1 -4.48967e-011 -7.13741e-028   
     length 4.77195   
     axis -180 -30 -90   XYZ
    dof rx ry rz
    limits (-60.0 90.0)
           (-90.0 90.0)
           (-90.0 90.0)
  end
  begin
     id 19
     name lradius
     direction 1 -4.48977e-011 3.60404e-027   
     length 2.98444   
     axis -180 -30 -90   XYZ
    dof rx
    limits (-10.0 170.0)
  end
  begin
     id 20
     name lwrist
     direction 1 -4.48997e-011 7.54877e-027   
     length 1.49222   
     axis -7.18178e-015 90 90   XYZ
    dof ry
    limits (-180.0 0.0)
 end
  begin
     id 21 
     name lhand
     direction 1 -4.489e-011 1.51105e-026   
     length 0.992285   
     axis -9.63605e-015 90 90   XYZ
    dof rx rz
    limits (-90.0 90.0)
           (-45.0 45.0)
  end
  begin
     id 22 
     name lfingers
     direction 1 -4.48998e-011 3.01948e-026   
     length 0.800006   
     axis -1.92718e-014 90 90   XYZ
    dof rx
    limits (0.0 90.0)
  end
  begin
     id 23
     name lthumb
     direction 0.707107 -6.34881e-011 0.707107   
     length 1.14865   
     axis -90 45 -3.53137e-014   XYZ
    dof rx rz
    limits (-45.0 45.0)
           (-45.0 45.0)
  end
  begin
     id 24 
     name rclavicle
     direction -0.945672 0.324529 0.0196374   
     length 3.4236  
     axis 0 0 0   XYZ 
    dof ry rz
    limits (-10.0 20.0)
           (-20.0 0.0)
  end
  begin
     id 25 
     name rhumerus
     direction -1 -4.4896e-011 1.02757e-029  
     length 4.62052   
     axis -180 30 90   XYZ
    dof rx ry rz
    limits (-90.0 60.0)
           (-90.0 90.0)
           (-90.0 90.0)
  end
  begin
     id 26 
     name rradius
     direction -1 -4.48982e-011 3.85962e-027   
     length 2.95332   
     axis -180 30 90   XYZ
    dof rx
    limits (-10.0 170.0)
  end
  begin
     id 27 
     name rwrist
     direction -1 -4.48961e-011 7.55118e-027   
     length 1.47666   
     axis -7.18178e-015 -90 -90   XYZ
    dof ry
    limits (-180.0 0.0)
  end
  begin
     id 28
     name rhand
     direction -1 -4.48984e-011 1.50994e-026   
     length 0.990956   
     axis -9.63605e-015 -90 -90   XYZ
    dof rx rz
    limits (-90.0 90.0)
           (-45.0 45.0)
  end
  begin
     id 29
     name rfingers
     direction -1 -4.4892e-011 3.02158e-026   
     length 0.798934   
     axis -1.92718e-014 -90 -90   XYZ
    dof rx
    limits (0.0 90.0)
  end
  begin
     id 30
     name rthumb
     direction -0.707107 -6.34916e-011 0.707107   
     length 1.14711   
     axis -90 -45 3.53137e-014   XYZ
    dof rx rz
    limits (-45.0 45.0)
           (-45.0 45.0)
  end
:hierarchy
  begin
    root lhipjoint rhipjoint lowerback
    lhipjoint lfemur
    lfemur ltibia
    ltibia lfoot
    lfoot ltoes
    rhipjoint rfemur
    rfemur rtibia
    rtibia rfoot
    rfoot rtoes
    lowerback upperback
    upperback thorax
    thorax lowerneck lclavicle rclavicle
    lowerneck upperneck
    upperneck head
    lclavicle lhumerus
    lhumerus lradius
    lradius lwrist
    lwrist lhand lthumb
    lhand lfingers
    rclavicle rhumerus
    rhumerus rradius
    rradius rwrist
    rwrist rhand rthumb
    rhand rfingers
  end

#!OML:ASF H:\ManfredObstacles\Project 1\Capture day 1\Session 1\Male.ASF
:FULLY-SPECIFIED
:DEGREES
328
root 0.475371 16.2551 1.54367 -170.842 36.2669 -178.424
lowerback -9.8624 0.719284 -2.00805
upperback 2.1412 1.25098 -0.390724
thorax 7.7752 0.528588 0.923533
lowerneck 0.167285 0.0118033 -5.77273
upperneck -4.72214 0.408458 8.51145
head -1.58266 0.22053 3.81652
rclavicle 1.00237e-013 -1.27222e-014
rhumerus -29.7428 -12.6053 -83.9813
rradius 30.3537
rwrist 27.985
rhand 2.11827 -5.64174
rfingers 7.12502
rthumb 27.6177 -33.6349
lclavicle 1.00237e-013 -1.27222e-014
lhumerus -34.2168 25.6133 72.218
lradius 15.5026
lwrist -42.0646
lhand -5.32727 9.94229
lfingers 7.12502
lthumb 20.4789 38.8823
rfemur -0.197558 -2.7161 24.6637
rtibia 20.9761
rfoot -18.9238 17.3399
rtoes 28.0917
lfemur -30.417 -2.21292 -17.2884
ltibia 14.2647
lfoot 7.46149 -2.37018
ltoes 9.24891
329
root 0.604125 16.2563 1.29081 -169.752 35.8682 -177.26
lowerback -10.9146 0.73431 -0.97785
upperback 2.06061 1.13327 -0.180656
thorax 8.31296 0.507963 0.562608
lowerneck -0.0276989 -0.0515034 -5.61689
upperneck -4.56594 0.329573 8.55973
head -1.48919 0.184291 3.80077
rclavicle -3.60297e-014 -5.1684e-015
rhumerus -30.0367 -13.6139 -83.6273
rradius 29.8624
rwrist 28.5814
rhand 1.83708 -5.51299
rfingers 7.12502
rthumb 27.3488 -33.5489
lclavicle -3.60297e-014 -5.1684e-015
lhumerus -34.2176 26.7516 71.5688
lradius 15.1222
lwrist -43.051
lhand -5.55733 10.0748
lfingers 7.12502
lthumb 20.2579 39.0384
rfemur 0.146568 -2.26124 25.6048
rtibia 21.5934
rfoot -18.4745 16.8191
rtoes 27.2455
lfemur -30.8231 -2.42472 -16.4789
ltibia 15.8055
lfoot 8.29967 -2.69368
ltoes 11.9745
330
root 0.72712 16.2635 1.08192 -171.077 35.7648 -178.78
lowerback -10.429 0.585933 -2.53561
upperback 2.02282 1.16651 -0.491217
thorax 7.9703 0.464547 1.10888
lowerneck -0.154833 -0.120955 -5.5569
upperneck -4.35079 0.24148 8.77441
head -1.39023 0.142582 3.86278
rclavicle 4.54223e-014 1.63003e-014
rhumerus -30.5959 -14.504 -83.2383
rradius 29.4819
rwrist 28.9928
rhand 1.60679 -5.82861
rfingers 7.12502
rthumb 27.1285 -33.899
lclavicle 4.54223e-014 1.63003e-014
lhumerus -34.3594 27.4151 71.0424
lradius 14.8773
lwrist -43.6206
lhand -5.63079 10.1117
lfingers 7.12502
lthumb 20.1872 39.0828
rfemur 0.851441 -1.42755 24.3531
rtibia 22.8645
rfoot -18.139 15.5693
rtoes 24.9933
lfemur -30.3609 -2.99311 -17.9119
ltibia 17.3015
lfoot 8.48529 -2.95925
ltoes 16.3526
331
root 0.853857 16.2746 0.848222 -171.354 35.453 -179.35
lowerback -10.7803 0.476602 -3.1129
upperback 1.8955 1.12668 -0.657253
thorax 8.03164 0.424671 1.25602
lowerneck -0.120733 -0.249844 -5.50231
upperneck -4.23772 0.0760542 9.04011
head -1.34749 0.0584202 3.94689
rclavicle -8.10048e-014 1.66979e-014
rhumerus -31.2749 -15.8321 -82.6281
rradius 28.899
rwrist 29.7621
rhand 1.51704 -6.08337
rfingers 7.12502
rthumb 27.0426 -34.1672
lclavicle -8.10048e-014 1.66979e-014
lhumerus -34.5239 28.0351 70.4589
lradius 14.6465
lwrist -44.336
lhand -5.72252 10.1077
lfingers 7.12502
lthumb 20.0991 39.088
rfemur 0.84112 -1.1248 23.8306
rtibia 24.6991
rfoot -17.6915 14.7369
rtoes 21.8098
lfemur -30.3143 -3.39721 -18.5597
ltibia 18.8877
lfoot 7.47344 -4.02585
ltoes 12.8618
332
root 0.972279 16.2744 0.623922 -171.595 35.1824 -179.757
lowerback -10.9856 0.436808 -3.51629
upperback 1.79107 1.15174 -0.800821
thorax 8.03315 0.424953 1.33795
lowerneck -0.151707 -0.496615 -5.58806
upperneck -4.12073 -0.239981 9.4551
head -1.27966 -0.0974492 4.11317
rclavicle -2.3059e-014 1.15295e-014
rhumerus -32.0832 -17.4863 -81.7384
rradius 28.2178
rwrist 30.7826
rhand 1.47798 -6.06789
rfingers 7.12502
rthumb 27.0052 -34.1575
lclavicle -2.3059e-014 1.15295e-014
lhumerus -34.4951 28.1891 70.2194
lradius 14.5302
lwrist -44.6406
lhand -5.74183 10.1671
lfingers 7.12502
lthumb 20.0805 39.1494
rfemur 0.382625 -0.875954 23.422
rtibia 27.4741
rfoot -16.6077 14.4242
rtoes 21.8625
lfemur -29.9898 -3.51337 -19.119
ltibia 20.0174
lfoot 6.52845 -4.95815
ltoes 9.77673
333
root 1.08025 16.2855 0.404102 -171.554 34.9697 -179.449
lowerback -10.9935 0.49698 -3.2002
upperback 1.74678 1.18681 -0.806394
thorax 7.99345 0.457499 1.16009
lowerneck -0.171159 -0.571988 -5.50756
upperneck -3.98748 -0.339302 9.60706
head -1.22457 -0.146301 4.15056
rclavicle -2.94698e-014 -1.35174e-014
rhumerus -32.9435 -18.8004 -80.8709
rradius 27.6623
rwrist 31.441
rhand 1.60291 -6.06235
rfingers 7.12502
rthumb 27.1248 -34.1333
lclavicle -2.94698e-014 -1.35174e-014
lhumerus -34.1966 27.7992 70.4068
lradius 14.5296
lwrist -44.2997
lhand -5.69798 10.2401
lfingers 7.12502
lthumb 20.1227 39.218
rfemur -0.46033 -1.25405 23.5261
rtibia 30.7918
rfoot -14.7152 14.1078
rtoes 21.1891
lfemur -29.4388 -3.22634 -19.1534
ltibia 20.9855
lfoot 5.74039 -6.0196
ltoes 10.1651
334
root 1.17778 16.2928 0.18126 -171.85 34.8914 -179.599
lowerback -10.9272 0.485289 -3.13572
upperback 1.71847 1.16928 -0.914328
thorax 7.92906 0.456925 1.00532
lowerneck -0.176006 -0.614095 -5.43297
upperneck -3.88758 -0.397321 9.68296
head -1.1863 -0.175097 4.16205
rclavicle -1.42876e-013 1.59028e-014
rhumerus -33.7977 -19.5823 -80.1446
rradius 27.2164
rwrist 31.8082
rhand 1.8274 -5.91884
rfingers 7.12502
rthumb 27.3395 -33.9562
lclavicle -1.42876e-013 1.59028e-014
lhumerus -33.9208 27.0889 70.782
lradius 14.6965
lwrist -43.5948
lhand -5.53667 10.3267
lfingers 7.12502
lthumb 20.2777 39.2882
rfemur -1.40883 -2.26956 22.9617
rtibia 34.5264
rfoot -11.8552 14.2393
rtoes 21.0928
lfemur -28.7565 -3.01092 -19.6462
ltibia 21.9833
lfoot 4.85291 -6.96853
ltoes 11.0014
335
root 1.27192 16.3163 -0.0460265 -172.848 34.961 -180.756
lowerback -10.7404 0.370822 -3.92034
upperback 1.74017 1.14674 -1.18452
thorax 7.84006 0.422918 1.15455
lowerneck -0.0995501 -0.637833 -5.44332
upperneck -3.93977 -0.426251 9.72152
head -1.21473 -0.191932 4.17942
rclavicle 1.10972e-013 1.74931e-014
rhumerus -34.5294 -19.8707 -79.4968
rradius 26.8876
rwrist 32.0937
rhand 2.1981 -5.66627
rfingers 7.12502
rthumb 27.694 -33.6472
lclavicle 1.10972e-013 1.74931e-014
lhumerus -33.6451 25.9659 71.521
lradius 15.1012
lwrist -42.344
lhand -5.26033 10.4785
lfingers 7.12502
lthumb 20.5433 39.4116
rfemur -2.7354 -3.71463 21.2552
rtibia 38.826
rfoot -8.15639 14.4469
rtoes 20.9457
lfemur -27.5524 -3.01099 -21.0529
ltibia 22.4579
lfoot 3.9149 -7.61449
ltoes 12.2974
336
root 1.35761 16.3289 -0.255793 -172.321 35.0644 -180.093
lowerback -10.8828 0.421636 -3.185
upperback 1.65273 1.10229 -1.05639
thorax 7.83778 0.429398 0.870266
lowerneck -0.161108 -0.620383 -5.56328
upperneck -4.03358 -0.382007 9.90679
head -1.23861 -0.166837 4.27056
rclavicle -7.56376e-014 -5.56597e-015
rhumerus -35.0874 -19.7335 -79.0724
rradius 26.7846
rwrist 32.1705
rhand 2.6722 -5.59963
rfingers 7.12502
rthumb 28.1473 -33.5068
lclavicle -7.56376e-014 -5.56597e-015
lhumerus -33.1657 24.2209 72.6792
lradius 15.6759
lwrist -40.4302
lhand -5.16079 10.6601
lfingers 7.12502
lthumb 20.6389 39.5828
rfemur -4.86276 -4.76852 21.3111
rtibia 43.3051
rfoot -3.84067 13.9379
rtoes 22.9768
lfemur -26.8561 -2.56541 -20.7981
ltibia 22.5565
lfoot 3.25701 -8.22741
ltoes 14.0154
